<svg width="1024" height="1024" xmlns="http://www.w3.org/2000/svg" preserveAspectRatio="xMidYMid meet">

 <g>
  <title>Layer 1</title>
  <path id="svg_4" d="m570.66668,97.33348l-1.33319,251.99995l270.66674,-1.33333l-269.33355,-250.66662z" opacity="NaN" fill="#939df5"/>
  <rect id="svg_3" height="749.33351" width="208.00005" y="112.00015" x="279.99994" fill="#596aed"/>
  <path id="svg_1" d="m854.6,288.7c6,6 9.4,14.1 9.4,22.6l0,616.7c0,17.7 -14.3,32 -32,32l-640,0c-17.7,0 -32,-14.3 -32,-32l0,-832c0,-17.7 14.3,-32 32,-32l424.7,0c8.5,0 16.7,3.4 22.7,9.4l215.2,215.3zm-64.4,37.3l-188.2,-188.2l0,188.2l188.2,0zm-494.2,-190l0,64l64,0l0,-64l-64,0zm64,64l0,64l64,0l0,-64l-64,0zm-64,64l0,64l64,0l0,-64l-64,0zm64,64l0,64l64,0l0,-64l-64,0zm-64,64l0,64l64,0l0,-64l-64,0zm64,64l0,64l64,0l0,-64l-64,0zm-64,64l0,64l64,0l0,-64l-64,0zm0,64l0,160l128,0l0,-160l-128,0zm48,48l32,0l0,64l-32,0l0,-64z" fill="#d3d7fb"/>
 </g>
</svg>